<mxfile>
    <diagram id="KBz3jIWV81J9l9kOZqo0" name="Page-1">
        <mxGraphModel dx="920" dy="488" grid="1" gridSize="10" guides="1" tooltips="1" connect="1" arrows="1" fold="1" page="1" pageScale="1" pageWidth="827" pageHeight="1169" math="0" shadow="0">
            <root>
                <mxCell id="0"/>
                <mxCell id="1" parent="0"/>
                <mxCell id="26" value="" style="rounded=0;whiteSpace=wrap;html=1;fillColor=#E5CCFF;" vertex="1" parent="1">
                    <mxGeometry x="239" y="40" width="350" height="440" as="geometry"/>
                </mxCell>
                <mxCell id="27" value="&lt;font style=&quot;font-size: 18px&quot;&gt;APP NAME&lt;br&gt;WELCOME {name}&lt;br&gt;&lt;/font&gt;" style="text;html=1;strokeColor=none;fillColor=none;align=center;verticalAlign=middle;whiteSpace=wrap;rounded=0;" vertex="1" parent="1">
                    <mxGeometry x="309" y="40" width="210" height="60" as="geometry"/>
                </mxCell>
                <mxCell id="28" style="edgeStyle=orthogonalEdgeStyle;rounded=0;orthogonalLoop=1;jettySize=auto;html=1;" edge="1" parent="1" source="29" target="26">
                    <mxGeometry relative="1" as="geometry">
                        <Array as="points">
                            <mxPoint x="194" y="65"/>
                            <mxPoint x="194" y="60"/>
                        </Array>
                    </mxGeometry>
                </mxCell>
                <mxCell id="29" value="&lt;b&gt;&lt;font style=&quot;font-size: 14px&quot;&gt;Auth0&lt;/font&gt;&lt;/b&gt;" style="text;html=1;strokeColor=none;fillColor=none;align=center;verticalAlign=middle;whiteSpace=wrap;rounded=0;" vertex="1" parent="1">
                    <mxGeometry x="100" y="40" width="49" height="50" as="geometry"/>
                </mxCell>
                <mxCell id="30" value="JOIN&lt;br&gt;COMMUNITY" style="rounded=1;whiteSpace=wrap;html=1;fillColor=#999900;" vertex="1" parent="1">
                    <mxGeometry x="440" y="120" width="100" height="60" as="geometry"/>
                </mxCell>
                <mxCell id="31" value="CREATE&lt;br&gt;COMMUNITY" style="rounded=1;whiteSpace=wrap;html=1;fillColor=#999900;" vertex="1" parent="1">
                    <mxGeometry x="290" y="120" width="101" height="60" as="geometry"/>
                </mxCell>
                <mxCell id="32" value="Search ..." style="rounded=1;whiteSpace=wrap;html=1;fillColor=#4D4D4D;" vertex="1" parent="1">
                    <mxGeometry x="289" y="200" width="250" height="20" as="geometry"/>
                </mxCell>
                <mxCell id="33" value="my area of the map? idk whatever" style="shape=document;whiteSpace=wrap;html=1;boundedLbl=1;fillColor=#336600;" vertex="1" parent="1">
                    <mxGeometry x="289" y="230" width="250" height="80" as="geometry"/>
                </mxCell>
                <mxCell id="34" value="where is my cat? ring 07283 182828" style="shape=callout;whiteSpace=wrap;html=1;perimeter=calloutPerimeter;fillColor=#0066CC;" vertex="1" parent="1">
                    <mxGeometry x="289" y="330" width="251" height="70" as="geometry"/>
                </mxCell>
                <mxCell id="35" value="does anybody need furniture? message me" style="shape=callout;whiteSpace=wrap;html=1;perimeter=calloutPerimeter;fillColor=#0066CC;" vertex="1" parent="1">
                    <mxGeometry x="290" y="380" width="251" height="70" as="geometry"/>
                </mxCell>
                <mxCell id="36" value="NEW - food bank delivery site at {address}&amp;nbsp;" style="shape=callout;whiteSpace=wrap;html=1;perimeter=calloutPerimeter;fillColor=#0066CC;" vertex="1" parent="1">
                    <mxGeometry x="290" y="430" width="251" height="70" as="geometry"/>
                </mxCell>
                <mxCell id="37" value="(old)&amp;nbsp; hi i am mary i am new to area hello" style="shape=callout;whiteSpace=wrap;html=1;perimeter=calloutPerimeter;fillColor=#999999;" vertex="1" parent="1">
                    <mxGeometry x="290" y="480" width="251" height="70" as="geometry"/>
                </mxCell>
            </root>
        </mxGraphModel>
    </diagram>
</mxfile>